<?xml version="1.0" encoding="UTF-8"?><svg id="info_reflection" xmlns="http://www.w3.org/2000/svg" viewBox="0 0 200 200"><defs><style>.cls-1{fill:#9059a4;}.cls-1,.cls-2{stroke-width:0px;}.cls-2{fill:#fff;}</style></defs><circle class="cls-1" cx="100" cy="100" r="100"/><g id="BDzui4"><path class="cls-2" d="M92.84,60.2c7.39-8.21,16.35-11.26,27.13-8.56,10.57,3.39,16.55,10.72,18.52,21.54,6.49-.45,12.02,1.64,16.32,6.64,3.42,3.97,4.9,8.66,4.44,13.88-.51,5.82-3.2,10.5-7.96,13.88-4.77,3.38-10.07,4.22-15.78,2.85.01,7.01-2.51,12.9-7.74,17.55-3.12,2.78-6.78,4.49-10.89,5.23-9.08,1.65-19.08-2.57-23.86-11.51-5.73,3.92-11.88,4.9-18.36,2.28-6.46-2.61-10.21-7.59-11.65-14.39-.13.07-.24.13-.36.2-8.48,5.24-19.37.72-21.62-8.99-1.32-5.68,1.04-11.61,5.97-14.98.28-.19.38-.38.36-.73-.48-9.32,2.79-17.11,9.71-23.32,4.24-3.81,9.26-6.07,14.92-6.82,7.5-1,14.35.72,20.55,5.05.11.08.22.15.3.19Z"/><path class="cls-2" d="M55.02,133.56c-.01-5.38,4.36-9.75,9.77-9.77,5.38-.02,9.8,4.36,9.81,9.73,0,5.4-4.36,9.82-9.71,9.83-5.48,0-9.85-4.34-9.86-9.8Z"/><path class="cls-2" d="M46.62,149.32c-3.27,0-5.94-2.66-5.94-5.93,0-3.27,2.67-5.93,5.94-5.92,3.28.01,5.9,2.63,5.91,5.9,0,3.3-2.63,5.95-5.91,5.95Z"/></g></svg>