<?xml version="1.0" encoding="UTF-8"?><svg id="info_oppgave" xmlns="http://www.w3.org/2000/svg" viewBox="0 0 200 200"><defs><style>.cls-1{fill:#5a71a3;}.cls-1,.cls-2{stroke-width:0px;}.cls-2{fill:#fff;}</style></defs><circle class="cls-1" cx="100" cy="100" r="100"/><g id="H2r3kN.tif"><path class="cls-2" d="M90.27,50c1.49,1.44,3,2.85,4.46,4.32,1.76,1.77,1.78,3.38.05,5.11-9.34,9.36-18.68,18.71-28.05,28.03-2.85,2.84-5.84,2.78-8.71-.07-4.32-4.29-8.63-8.59-12.9-12.92-.67-.68-1.15-1.55-1.72-2.33,0-.25,0-.49,0-.74,1.46-1.63,2.86-3.32,4.38-4.89,1.97-2.04,3.27-2.01,5.29,0,3.09,3.08,6.16,6.17,9.34,9.35,3.36-3.37,6.64-6.67,9.95-9.96,5.35-5.31,10.71-10.61,16.07-15.91.62,0,1.23,0,1.85,0Z"/><path class="cls-2" d="M122.52,100.81c9.59,0,19.18,0,28.77,0,4.1,0,5.29,1.2,5.3,5.26,0,1.91.05,3.81-.02,5.71-.1,2.71-1.62,4.21-4.32,4.21-19.86.02-39.72.02-59.57,0-2.68,0-4.2-1.59-4.23-4.27-.03-2.09-.01-4.18,0-6.27.01-3.24,1.33-4.63,4.57-4.64,9.84-.03,19.67,0,29.51-.01Z"/><path class="cls-2" d="M122.58,134.84c9.78,0,19.55,0,29.33,0,3.31,0,4.65,1.36,4.69,4.72.02,2.03.05,4.06-.01,6.08-.08,2.85-1.56,4.31-4.38,4.31-19.8,0-39.59,0-59.39,0-2.86,0-4.33-1.46-4.36-4.29-.02-2.21-.03-4.42,0-6.64.03-2.73,1.49-4.18,4.25-4.18,9.96-.02,19.92,0,29.88,0Z"/><path class="cls-2" d="M128.29,82.01c-7.81,0-15.61,0-23.42,0-3.75,0-5.02-1.25-5.04-4.93,0-2.09-.03-4.18.01-6.27.05-2.41,1.3-3.75,3.68-4,.55-.06,1.1-.05,1.66-.05,15.31,0,30.61,0,45.92,0,4.28,0,5.49,1.21,5.49,5.47,0,1.72.02,3.44,0,5.16-.06,3.13-1.54,4.6-4.69,4.6-7.87.02-15.74,0-23.61,0Z"/><path class="cls-2" d="M65.78,134.85c1.29,0,2.58-.04,3.87.01,2.15.08,3.58,1.43,3.65,3.59.09,2.64.08,5.29,0,7.93-.07,2.03-1.51,3.48-3.52,3.55-2.64.09-5.29.09-7.93,0-2.03-.07-3.56-1.62-3.63-3.71-.09-2.58-.1-5.17,0-7.74.09-2.17,1.66-3.56,3.87-3.63,1.23-.04,2.46,0,3.69,0Z"/><path class="cls-2" d="M73.34,108.45c0,1.23.05,2.46,0,3.69-.1,2.23-1.48,3.74-3.68,3.83-2.58.1-5.17.11-7.75,0-2.09-.09-3.6-1.61-3.68-3.68-.1-2.58-.09-5.17,0-7.75.07-2.12,1.5-3.58,3.63-3.66,2.64-.1,5.29-.11,7.93,0,2.2.09,3.44,1.46,3.55,3.69.06,1.29.01,2.58.01,3.87Z"/></g></svg>